<svg id="Layer_1" data-name="Layer 1" xmlns="http://www.w3.org/2000/svg" viewBox="0 0 1006.24 1006.24"><circle cx="503.12" cy="503.12" r="503.12" style="fill:#fb2d9d"/><path d="M633.44,803q-12.69,0-21.21-5.69t-12-17.05l-10.5-34.55A267.15,267.15,0,0,1,561.29,772a178.74,178.74,0,0,1-32.15,20.33A169.65,169.65,0,0,1,492,805.41,191.44,191.44,0,0,1,448.9,810a139.63,139.63,0,0,1-65.6-15.74q-30.18-15.75-52-45.48T296.93,676q-12.46-43.08-12.46-98.18,0-50.73,14-94.24T338,408.33a183.72,183.72,0,0,1,61.44-49.63q35.85-17.94,79.15-17.93,35,0,59.26,10.27a171.28,171.28,0,0,1,44,26.9V148.35H717.41V803ZM496.13,705.92A116.92,116.92,0,0,0,523,703.08,94.33,94.33,0,0,0,545.11,695a96.56,96.56,0,0,0,19-13.12,166,166,0,0,0,17.71-18.37V471.09Q566.09,454,548.39,447.25A103.9,103.9,0,0,0,511,440.47a79.81,79.81,0,0,0-34.55,7.44q-15.75,7.44-27.33,23.83T431,514.38q-6.57,26.24-6.56,63.41,0,35.87,5.25,60.35t14.65,39.58q9.39,15.07,22.52,21.64A64.48,64.48,0,0,0,496.13,705.92Z" style="fill:#fff"/></svg>